<svg width="20" height="20" viewBox="0 0 20 20" fill="none" xmlns="http://www.w3.org/2000/svg">
<path d="M9.99979 8.82168L13.5356 5.28585C13.861 4.96046 14.3886 4.96046 14.714 5.28585C15.0393 5.61124 15.0393 6.1388 14.714 6.46418L11.1781 10L14.714 13.5359C15.0393 13.8612 15.0393 14.3888 14.714 14.7142C14.3886 15.0396 13.861 15.0396 13.5356 14.7142L9.99979 11.1783L6.46396 14.7142C6.13857 15.0396 5.61101 15.0396 5.28562 14.7142C4.96023 14.3888 4.96023 13.8612 5.28562 13.5359L8.82145 10L5.28562 6.46418C4.96023 6.1388 4.96023 5.61124 5.28562 5.28585C5.61101 4.96046 6.13857 4.96046 6.46395 5.28585L9.99979 8.82168Z" fill="#E05E5E"/>
</svg>
