<svg width="20" height="20" viewBox="0 0 20 20" fill="none" xmlns="http://www.w3.org/2000/svg">
<path d="M13.1067 8.07167L11.9283 6.89334L4.16667 14.655V15.8333H5.345L13.1067 8.07167ZM14.285 6.89334L15.4633 5.71501L14.285 4.53667L13.1067 5.71501L14.285 6.89334ZM6.27907 17.256C6.1228 17.4122 5.91084 17.5 5.68984 17.5H3.33333C2.8731 17.5 2.5 17.1269 2.5 16.6667V14.3094C2.5 14.0883 2.5878 13.8764 2.74408 13.7201L13.6958 2.76834C13.8521 2.61212 14.064 2.52435 14.285 2.52435C14.506 2.52435 14.7179 2.61212 14.8742 2.76834L17.2317 5.12584C17.3879 5.28211 17.4757 5.49404 17.4757 5.71501C17.4757 5.93598 17.3879 6.1479 17.2317 6.30418L6.27907 17.256Z" fill="#E0BA5E"/>
</svg>
