<svg width="20" height="20" viewBox="0 0 20 20" fill="none" xmlns="http://www.w3.org/2000/svg">
<path d="M2.5 16.6667C2.5 16.2064 2.8731 15.8334 3.33333 15.8334H16.6667C17.1269 15.8334 17.5 16.2064 17.5 16.6667C17.5 17.1269 17.1269 17.5 16.6667 17.5H3.33333C2.8731 17.5 2.5 17.1269 2.5 16.6667ZM10.8333 10.9767L15.3033 6.50594C15.6287 6.18051 16.1563 6.18049 16.4817 6.5059C16.8071 6.83127 16.8071 7.35879 16.4817 7.68418L10.5893 13.5774C10.2638 13.9028 9.73616 13.9028 9.41071 13.5774L3.51836 7.68504C3.19292 7.35961 3.19283 6.832 3.51815 6.50645C3.84361 6.18076 4.3715 6.18065 4.69711 6.5062L9.16667 10.975V2.50002C9.16667 2.03978 9.53976 1.66669 10 1.66669C10.4602 1.66669 10.8333 2.03978 10.8333 2.50002V10.9767Z" fill="#37AE6B"/>
</svg>
